<svg width="104" height="28" viewBox="0 0 104 28" fill="none" xmlns="http://www.w3.org/2000/svg"><path d="M19.8198 13.2311C20.024 13.2064 20.2197 13.2059 20.3993 13.2311 20.5033 12.992 20.5212 12.5804 20.4278 12.1324 20.2885 11.466 20.1006 11.0628 19.7119 11.1255 19.3232 11.1882 19.3086 11.6709 19.4479 12.3373 19.5262 12.712 19.6655 13.0328 19.8204 13.2311H19.8198z" fill="#1f1f20"/><path d="M16.4813 13.7586C16.7598 13.8807 16.9304 13.9619 16.9975 13.8913 17.0406 13.8471 17.0278 13.7631 16.9612 13.6544 16.8242 13.4299 16.5412 13.2025 16.2419 13.0743 15.6289 12.8099 14.8979 12.8979 14.3342 13.3039 14.1479 13.4405 13.9717 13.6298 13.9969 13.7446 14.0053 13.7815 14.0327 13.8095 14.0981 13.8191c.1533.0172999999999988.6897-.2537 1.3077-.2918C15.842 13.5004 16.2033 13.6371 16.4813 13.7591V13.7586z" fill="#1f1f20"/><path d="M15.9215 14.0783C15.559 14.1355 15.3594 14.2553 15.2307 14.3667 15.1211 14.4625 15.0534 14.5683 15.054 14.6428L15.082 14.7089 15.1418 14.7319C15.2235 14.7319 15.4069 14.6585 15.4069 14.6585 15.9114 14.4776 16.2442 14.4995 16.5736 14.537 16.7559 14.5577 16.8421 14.5689 16.8818 14.5062 16.8935 14.4883 16.9081 14.4496 16.8717 14.3903 16.7867 14.2525 16.4209 14.0195 15.922 14.0789L15.9215 14.0783z" fill="#1f1f20"/><path d="M14.5425 11.7598h2.2374V15.12H14.5425V11.7598z" fill="#1f1f20"/><path d="M18.6927 15.2521C18.9388 15.3731 19.2095 15.3255 19.2979 15.1457 19.3862 14.9659 19.2582 14.7223 19.0121 14.6014 18.766 14.4804 18.4953 14.528 18.4069 14.7078 18.3185 14.8875 18.4466 15.1311 18.6927 15.2521z" fill="#1f1f20"/><path d="M20.2746 13.8683C20.0749 13.865 19.9088 14.0845 19.9043 14.3595 19.8998 14.6339 20.0581 14.859 20.2578 14.8623 20.4575 14.8657 20.6236 14.6462 20.628 14.3718 20.6325 14.0974 20.4742 13.8723 20.2746 13.8683z" fill="#1f1f20"/><path d="M6.84734 18.8176C6.79757 18.7554 6.71591 18.7745 6.63705 18.7924 6.58168 18.8053 6.51904 18.8198 6.4508 18.8187 6.30371 18.8159 6.17898 18.7532 6.10907 18.6457 6.0179 18.5057 6.0235 18.2968 6.12361 18.0577L6.17059 17.9507C6.33111 17.5907 6.59902 16.9875 6.29811 16.4135 6.0716 15.9812 5.70134 15.7119 5.2567 15.6553 4.82995 15.601 4.39034 15.7595 4.11013 16.0691 3.66773 16.5575 3.59893 17.2222 3.6845 17.4574 3.71583 17.5436 3.76504 17.5671 3.80028 17.5722 3.87579 17.5823 3.98653 17.5274 4.05644 17.3398L4.07657 17.2787C4.10789 17.1796 4.1655 16.9948 4.26002 16.8464 4.37412 16.6678 4.55198 16.5446 4.76116 16.4998 4.97369 16.4544 5.19126 16.4947 5.37303 16.614 5.68288 16.8173 5.80201 17.197 5.67002 17.5598 5.60178 17.7474 5.49048 18.1059 5.51509 18.4004 5.56487 18.9968 5.93121 19.2365 6.26008 19.2617 6.58 19.274 6.80372 19.0937 6.86021 18.9621 6.89377 18.8842 6.86524 18.8372 6.84734 18.8165V18.8176z" fill="#1f1f20"/><path d="M25.3188 17.7267C25.3065 17.6836 25.2271 17.393 25.118 17.043L24.896 16.4466c.4374-.655799999999999.4452-1.2421.387-1.5742C25.2209 14.4608 25.0498 14.1097 24.7047 13.7474 24.3596 13.3845 23.6543 13.0132 22.6627 12.7349L22.1425 12.5904C22.1398 12.5692 22.1151 11.3624 22.0928 10.8444 22.0766 10.4697 22.0441 9.88564 21.8629 9.30941 21.647 8.52989 21.2712 7.84837 20.8014 7.41213c1.2958-1.34455 2.1046-2.82631 2.1024-4.09694C22.8998.871356 19.9026.131598 16.2084 1.66319L15.4259 1.99583C15.4226 1.99247 14.0109.605916 13.9896.587436 9.77811-3.09063-3.3906 11.5645.819809 15.1239l.920051.7806C1.50104 16.5233 1.40763 17.2328 1.48426 17.9955 1.58269 18.975 2.08718 19.9141 2.90544 20.6398 3.68175 21.3286 4.70303 21.7649 5.69355 21.7638c1.63819 3.7805 5.38155 6.0995 9.77095 6.2299C20.1727 28.1337 24.1253 25.9217 25.7814 21.948 25.8899 21.6691 26.3496 20.4125 26.3496 19.3031c0-1.1149-.629199999999997-1.5769-1.0302-1.5769L25.3188 17.7267zM6.05541 20.702C5.91223 20.7266 5.76626 20.7362 5.61916 20.7328c-1.4223-.0381-2.95814-1.3199-3.11082-2.8403-.16891-1.68.68849-2.9736 2.20699-3.2799C4.89654 14.5762 5.11635 14.5549 5.35293 14.5672 6.20363 14.6137 7.45702 15.2678 7.74338 17.1231c.25336 1.643-.14933 3.3163-1.68797 3.5789zM4.46756 13.6074C3.52235 13.7916 2.68955 14.3275 2.18003 15.0684 1.87577 14.8142 1.30808 14.3219 1.20796 14.1304c-.813218-1.5461.88761-4.5522 2.07556-6.24955C6.21985 3.68535 10.8184.510157 12.9477 1.08583 13.2939 1.18383 14.4399 2.51439 14.4399 2.51439s-2.1282 1.18216-4.1014 2.83023C7.67962 7.39477 5.67062 10.374 4.46756 13.6074zM19.3942 20.0737C19.4249 20.0608 19.4462 20.025 19.4428 19.9902 19.4383 19.9471 19.3997 19.9158 19.3567 19.9202 19.3567 19.9202 17.129 20.2506 15.0243 19.479 15.2537 18.733 15.8633 19.0024 16.7845 19.0769 18.445 19.176 19.9333 18.933 21.0329 18.6171 21.9859 18.3433 23.2377 17.8035 24.2103 17.0351c.3277.721299999999999.4435 1.5148.4435 1.5148S24.9077 18.5046 25.1197 18.635C25.3199 18.7588 25.467 19.0153 25.3669 19.6794 25.1622 20.9198 24.6359 21.9262 23.7511 22.8524 23.2125 23.4331 22.5587 23.9377 21.8103 24.3045 21.4132 24.5133 20.9898 24.6942 20.543 24.8404 17.2073 25.9313 13.7922 24.7317 12.6915 22.1563 12.6037 21.9626 12.5293 21.7598 12.4706 21.5482 12.0013 19.8508 12.3996 17.8147 13.6446 16.5328V16.5323C13.7212 16.4505 13.7995 16.3547 13.7995 16.2338 13.7995 16.1324 13.7352 16.026 13.6798 15.9504 13.2441 15.3182 11.7357 14.2402 12.0388 12.1542 12.2564 10.6556 13.5651 9.6006 14.7855 9.66332L15.0948 9.68124C15.6234 9.7126 16.0848 9.78036 16.5205 9.79884 17.2492 9.8302 17.9042 9.72436 18.6799 9.07701 18.9417 8.85861 19.1514 8.66933 19.5066 8.60885 19.544 8.60269 19.6369 8.56909 19.822 8.57805 20.0116 8.58813 20.1917 8.64021 20.3539 8.74829 20.9759 9.16269 21.0642 10.1668 21.0967 10.9009 21.1151 11.3204 21.1655 12.3345 21.1828 12.6252 21.2225 13.291 21.397 13.3845 21.7505 13.5015 21.9496 13.5671 22.1342 13.6158 22.406 13.6925 23.2293 13.9238 23.7175 14.159 24.0257 14.4603 24.2092 14.649 24.2947 14.8489 24.321 15.0404 24.4183 15.7499 23.7712 16.6258 22.0581 17.4221 20.1856 18.2923 17.9142 18.5124 16.3449 18.3377L15.7951 18.2755c-1.2557-.1691-1.9716 1.4555-1.2182 2.5682C15.0624 21.561 16.3851 22.0275 17.7084 22.0281 20.7426 22.0286 23.0749 20.7311 23.9424 19.6106L24.0117 19.5114C24.0542 19.447 24.019 19.4118 23.9659 19.4482 23.2572 19.9337 20.1089 21.8618 16.7414 21.2816 16.7414 21.2816 16.332 21.2144 15.9589 21.0688 15.6619 20.9534 15.0411 20.6673 14.9656 20.0289 17.6833 20.8706 19.3942 20.0748 19.3942 20.0748V20.0737zm-4.305-.5091L15.0898 19.5652 15.0903 19.5663 15.0892 19.5641V19.5646zM9.89053 7.86293C10.9342 6.65501 12.2195 5.60502 13.3705 5.01534 13.4102 4.99518 13.4527 5.0383 13.4309 5.0775 13.3397 5.24326 13.1636 5.5983 13.1076 5.8671 13.0987 5.9091 13.1445 5.94046 13.1798 5.91638c.7159-.48888 1.962-1.01248 3.0549-1.07968C16.2816 4.8339 16.304 4.89382 16.2671 4.92294 16.101 5.05062 15.9192 5.22702 15.7867 5.40566 15.7643 5.4359 15.7856 5.47958 15.823 5.48014 16.5904 5.48574 17.6721 5.75454 18.3768 6.15046 18.4243 6.17734 18.3908 6.26974 18.3371 6.25742 17.2705 6.0127 15.5244 5.82678 13.7105 6.26974 12.0914 6.66509 10.8553 7.27549 9.95373 7.93237 9.90843 7.96541 9.85362 7.90549 9.89053 7.86237V7.86293z" fill="#1f1f20"/><path d="M100.664 10.7027C99.1033 10.7027 98.3885 11.8742 98.0776 12.5412 97.8723 12.9819 97.8824 13.1112 97.7325 13.1112 97.5155 13.1112 97.6956 12.7573 97.7929 12.3407 97.9853 11.5208 97.8387 10.8948 97.8387 10.8948H95.615V21.579H98.6503V18.1915C99.0094 18.8014 99.6749 19.4532 100.701 19.4532 102.895 19.4532 104 17.5935 104 15.0813c0-2.8476-1.322-4.3797-3.337-4.3797L100.664 10.7027zM99.8304 17.4703C99.1341 17.4703 98.6223 16.5866 98.6223 15.3546c0-1.1962.526300000000006-2.1151 1.1841-2.1151.8446.0 1.2046.775600000000001 1.2046 2.1151.0 1.3933-.331999999999994 2.1157-1.1806 2.1157z" fill="#1f1f20"/><path d="M40.3305 10.7027c-1.3351.0-1.9956 1.0522-2.2987 1.7304C37.8623 12.8122 37.8153 13.1118 37.6777 13.1118 37.4842 13.1118 37.6229 12.8514 37.4646 12.274 37.256 11.5141 36.6285 10.7027 35.294 10.7027c-1.4027.0-2.0034 1.1866-2.2881 1.8384C32.8112 12.9869 32.8107 13.1112 32.6608 13.1112 32.4438 13.1112 32.6239 12.7573 32.7212 12.3407 32.9136 11.5208 32.7671 10.8948 32.7671 10.8948H30.5433v8.3719h3.0353V15.1015C33.5786 14.2799 33.922 13.2372 34.5104 13.2372 35.1899 13.2372 35.3264 13.7603 35.3264 14.7279V19.269H38.374V15.1015C38.374 14.3701 38.6722 13.2372 39.3103 13.2372 39.9994 13.2372 40.1219 13.9714 40.1219 14.7279v4.5388h2.9928V14.3432C43.1147 12.1581 42.3456 10.7016 40.331 10.7016L40.3305 10.7027zm51.5193.0C90.5148 10.7027 89.8542 11.7549 89.5511 12.4331 89.3816 12.8122 89.3346 13.1118 89.197 13.1118 89.0035 13.1118 89.1327 12.7808 88.984 12.274 88.7614 11.518 88.2082 10.7027 86.8133 10.7027c-1.4027.0-2.0034 1.1866-2.2881 1.8384C84.3306 12.9869 84.33 13.1112 84.1801 13.1112 83.9631 13.1112 84.1432 12.7573 84.2405 12.3407 84.4329 11.5208 84.2864 10.8948 84.2864 10.8948H82.0626v8.3719H85.0979V15.1015C85.0979 14.2799 85.4413 13.2372 86.0297 13.2372 86.7093 13.2372 86.8458 13.7603 86.8458 14.7279V19.269h3.0476V15.1015C89.8934 14.3701 90.1915 13.2372 90.8296 13.2372 91.5187 13.2372 91.6412 13.9714 91.6412 14.7279v4.5388H94.634V14.3432C94.634 12.1581 93.865 10.7016 91.8504 10.7016L91.8498 10.7027zM48.2966 10.7044C45.9716 10.7044 44.3032 11.56 44.3032 11.56v2.5161s1.8423-1.0606 3.3368-1.0606c1.193.0 1.3395.644 1.2852 1.1788C48.9252 14.1943 48.5813 14.103 47.5315 14.103c-2.4738.0-3.7227 1.1256-3.7227 2.931C43.8088 18.7465 45.212 19.4622 46.395 19.4622c1.72539999999999.0 2.4838-1.1609 2.717-1.712C49.2737 17.3683 49.3033 17.1107 49.4487 17.1107 49.6143 17.1107 49.5584 17.2955 49.5505 17.6758 49.5365 18.3416 49.5679 18.8456 49.6736 19.2695h2.2875V15.1491c0-2.5727-.908900000000003-4.4447-3.664-4.4447H48.2966zM47.5577 17.3106C46.8318 17.4786 46.4559 17.2547 46.4559 16.7731 46.4559 16.1134 47.1377 15.8491 48.1103 15.8491 48.5393 15.8491 48.9426 15.886 48.9426 15.886 48.9426 16.1688 48.3301 17.1326 47.5577 17.3106zM56.9607 8.36076H59.996V19.2695H56.9607V8.36076zm6.376 6.72224C63.3367 14.3303 64.0353 13.6455 65.3172 13.6455 66.7143 13.6455 67.838 14.3191 68.0902 14.472V11.56S67.2026 10.7044 65.0202 10.7044c-2.3004.0-4.216 1.3479-4.216 4.2487C60.8042 17.8538 62.5425 19.4622 65.014 19.4622 66.9442 19.4622 68.0952 18.4004 68.0952 18.4004V15.6346C67.7311 15.8384 66.7166 16.5435 65.3312 16.5435 63.8641 16.5435 63.3361 15.8675 63.3361 15.0835L63.3367 15.083zm10.9024-4.3786C72.4818 10.7044 71.8135 12.3715 71.6787 12.661 71.5439 12.9505 71.4768 13.1168 71.3666 13.1135 71.1747 13.1073 71.3084 12.7579 71.3833 12.5322 71.5248 12.1049 71.8241 10.9849 71.8241 9.60732 71.8241 8.67324 71.6977 8.36076 71.6977 8.36076H69.0774V19.2695H72.1127V15.1043C72.1127 14.4255 72.3828 13.24 73.1479 13.24 73.7811 13.24 73.9796 13.7099 73.9796 14.6563v4.6138H77.0149V14.8388c0-2.1493-.355699999999999-4.1333-2.7758-4.1333V10.7044zm3.7624.2021V19.269H81.0369V10.9065S80.5268 11.2056 79.5223 11.2056C78.5178 11.2056 78.0015 10.9065 78.0015 10.9065z" fill="#1f1f20"/><path d="M81.3684 9.49029C81.3684 10.1608 80.5367 10.7044 79.5104 10.7044c-1.02630000000001.0-1.858-.5436-1.858-1.21411C77.6524 8.81975 78.4841 8.27621 79.5104 8.27621 80.5367 8.27621 81.3684 8.81975 81.3684 9.49029z" fill="#1f1f20"/><path d="M52.9427 10.9065V19.269H55.978V10.9065S55.4679 11.2056 54.4634 11.2056L52.9427 10.9065z" fill="#1f1f20"/><path d="M56.3097 9.49029C56.3097 10.1608 55.4779 10.7044 54.4517 10.7044c-1.0261.0-1.858-.5436-1.858-1.21411C52.5937 8.81975 53.4256 8.27621 54.4517 8.27621c1.0262.0 1.858.54354 1.858 1.21408z" fill="#1f1f20"/></svg>